# xmcd
#
# Track frame offsets:
#	150
#	14920
#	24967
#	37746
#	49543
#	60890
#	76158
#	86952
#	98179
#	109131
#	124037
#	137561
#	152089
#	166216
#	184665
#	197762
#
# Disc length: 2785 seconds
#
# Revision: 0
# Processed by: cddbd v1.5.2PL0 Copyright (c) Steve Scherf et al.
# Submitted via: audiograbber 1.83.01
#
DISCID=c10adf10
DTITLE=Mantovani and His Orchestra - Song Hits From Theatreland
DYEAR=1900
DGENRE=
TTITLE0=Carousel: If I Loved You
TTITLE1=Kiss Me Kate: Wunderbar
TTITLE2=Guys And Dolls: I`ve Never Been In Love Before
TTITLE3=Pal Joey:Bewitched
TTITLE4=Paint Your Wagon: I Talk To The Trees
TTITLE5=South Pacific: Some Enchanted Evening
TTITLE6=Oklahoma: Out Of My Dreams
TTITLE7=Kismet: Stranger In Paradise
TTITLE8=Can Can: C`est Magnifique
TTITLE9=Brigadoon: Almost Like Being In Love
TTITLE10=The King And I: Hello Young Lovers
TTITLE11=Annie Get Your Gun: They Say It`s Wonderful
TTITLE12=And This Is My Beloved
TTITLE13=Drink To Me Only With Thine Eyes
TTITLE14=Night And Day
TTITLE15=Parlez-Moi D`Amour
EXTD=
EXTT0=
EXTT1=
EXTT2=
EXTT3=
EXTT4=
EXTT5=
EXTT6=
EXTT7=
EXTT8=
EXTT9=
EXTT10=
EXTT11=
EXTT12=
EXTT13=
EXTT14=
EXTT15=
PLAYORDER=
